<?xml version="1.0" encoding="utf-8"?>
<!-- Generator: Adobe Illustrator 16.0.0, SVG Export Plug-In . SVG Version: 6.00 Build 0)  -->
<!DOCTYPE svg PUBLIC "-//W3C//DTD SVG 1.1//EN" "http://www.w3.org/Graphics/SVG/1.1/DTD/svg11.dtd">
<svg version="1.1" id="Layer_1" xmlns="http://www.w3.org/2000/svg" xmlns:xlink="http://www.w3.org/1999/xlink" x="0px" y="0px"
	 width="198px" height="69px" viewBox="0 0 198 69" style="enable-background:new 0 0 198 69;" xml:space="preserve">
<style type="text/css">
<![CDATA[
	.st0{fill:#FFFFFF;}
]]>
</style>
<g>
	<polygon class="st0" points="0,0.6 39.6,0.6 39.6,10.7 14.8,10.7 14.8,18.2 37.8,18.2 37.8,27.9 14.8,27.9 14.8,37.2 40.3,37.2 
		40.3,47.8 0,47.8 0,0.6 	"/>
	<path class="st0" d="M101.9,0.6h24.6c5.3,0,9.4,1.3,12,3.8c2.7,2.5,4,6.1,4,10.7c0,4.8-1.5,8.5-4.4,11.2c-2.9,2.7-7.3,4-13.3,4
		h-8.1v17.5h-14.9V0.6L101.9,0.6z M116.8,20.8L116.8,20.8h3.6c2.8,0,4.8-0.5,6-1.5c1.1-1,1.7-2.2,1.7-3.8c0-1.5-0.5-2.7-1.5-3.8
		c-1-1-2.9-1.5-5.6-1.5h-4.2V20.8L116.8,20.8z"/>
	<path class="st0" d="M148.4,24.3c0-7.7,2.2-13.7,6.5-18c4.4-4.3,10.4-6.4,18.2-6.4c8,0,14.1,2.1,18.4,6.3
		c4.3,4.2,6.5,10.1,6.5,17.7c0,5.5-0.9,10-2.8,13.6c-1.9,3.5-4.6,6.3-8.2,8.2c-3.6,2-8,2.9-13.3,2.9c-5.4,0-9.9-0.8-13.4-2.5
		c-3.5-1.7-6.4-4.4-8.6-8C149.5,34.4,148.4,29.8,148.4,24.3L148.4,24.3z M163.2,24.3L163.2,24.3c0,4.8,0.9,8.2,2.7,10.3
		c1.8,2.1,4.2,3.1,7.3,3.1c3.2,0,5.6-1,7.4-3.1c1.7-2,2.6-5.7,2.6-11c0-4.4-0.9-7.7-2.7-9.7c-1.8-2-4.3-3.1-7.4-3.1
		c-3,0-5.4,1-7.2,3.1C164.1,16.1,163.2,19.5,163.2,24.3L163.2,24.3z"/>
	<polygon class="st0" points="95.9,0.5 79.8,0.5 73.1,10.9 81.9,23.5 95.9,0.5 	"/>
	<polygon class="st0" points="43.9,47.7 60.4,47.7 67.2,36.8 58.5,24.3 43.9,47.7 	"/>
	<polygon class="st0" points="96.1,68.8 89.4,68.8 41.9,0.5 48.6,0.5 96.1,68.8 	"/>
	<polygon class="st0" points="104.8,68.8 98.1,68.8 50.6,0.5 57.2,0.5 104.8,68.8 	"/>
	<polygon class="st0" points="113.4,68.8 106.8,68.8 59.2,0.5 65.9,0.5 113.4,68.8 	"/>
	<polygon class="st0" points="113.4,53.9 126.2,53.9 126.2,57.5 121.9,57.5 121.9,68.6 117.7,68.6 117.7,57.5 113.4,57.5 
		113.4,53.9 	"/>
	<polygon class="st0" points="128.1,53.9 139.3,53.9 139.3,57 132.3,57 132.3,59.3 138.8,59.3 138.8,62.3 132.3,62.3 132.3,65.2 
		139.5,65.2 139.5,68.6 128.1,68.6 128.1,53.9 	"/>
	<polygon class="st0" points="141.8,53.9 145.7,53.9 150.9,62 150.9,53.9 154.8,53.9 154.8,68.6 150.9,68.6 145.8,60.5 145.8,68.6 
		141.8,68.6 141.8,53.9 	"/>
	<path class="st0" d="M157.7,53.9h6.2c1.2,0,2.2,0.2,3,0.5s1.4,0.9,1.9,1.6c0.5,0.7,0.9,1.5,1.1,2.4c0.2,0.9,0.3,1.8,0.3,2.9
		c0,1.6-0.2,2.8-0.5,3.7c-0.3,0.9-0.8,1.6-1.4,2.2c-0.6,0.6-1.2,1-1.9,1.2c-0.9,0.3-1.8,0.4-2.5,0.4h-6.2V53.9L157.7,53.9z
		 M161.9,57.2L161.9,57.2v8h1c0.9,0,1.5-0.1,1.9-0.3c0.4-0.2,0.7-0.6,0.9-1.1c0.2-0.5,0.3-1.4,0.3-2.6c0-1.6-0.2-2.6-0.7-3.2
		c-0.5-0.6-1.3-0.9-2.3-0.9H161.9L161.9,57.2z"/>
	<path class="st0" d="M180,66.1h-4.8l-0.7,2.4h-4.3l5.1-14.7h4.6l5.1,14.7h-4.4L180,66.1L180,66.1z M179.1,63L179.1,63l-1.5-5.3
		l-1.5,5.3H179.1L179.1,63z"/>
	<path class="st0" d="M185.7,63.7l4-0.3c0.1,0.7,0.3,1.2,0.5,1.6c0.4,0.6,1.1,0.9,1.9,0.9c0.6,0,1.1-0.2,1.4-0.5s0.5-0.7,0.5-1.1
		c0-0.4-0.2-0.7-0.5-1c-0.3-0.3-1-0.6-2.2-0.9c-1.8-0.5-3.2-1-3.9-1.8c-0.8-0.7-1.2-1.7-1.2-2.8c0-0.8,0.2-1.5,0.6-2.1
		c0.4-0.7,1-1.2,1.8-1.6c0.8-0.4,1.9-0.6,3.3-0.6c1.7,0,3.1,0.3,4,1c0.9,0.7,1.5,1.8,1.6,3.3l-4,0.3c-0.1-0.7-0.3-1.1-0.7-1.4
		c-0.3-0.3-0.8-0.5-1.4-0.5c-0.5,0-0.9,0.1-1.1,0.3c-0.2,0.2-0.4,0.5-0.4,0.8c0,0.2,0.1,0.4,0.3,0.6c0.2,0.2,0.7,0.4,1.4,0.5
		c1.8,0.4,3.2,0.9,4,1.3c0.8,0.4,1.4,1,1.7,1.6c0.4,0.6,0.5,1.4,0.5,2.2c0,0.9-0.2,1.8-0.7,2.6c-0.5,0.8-1.2,1.4-2,1.8
		c-0.9,0.4-2,0.6-3.3,0.6c-2.3,0-3.9-0.5-4.8-1.4C186.3,66.4,185.8,65.2,185.7,63.7L185.7,63.7z"/>
</g>
</svg>
